# xmcd
#
# Track frame offsets:
# 150
# 3203
# 11603
# 12397
# 37904
# 38687
# 50328
# 50962
# 60300
# 61589
# 76637
# 77603
# 98402
# 99171
# 109127
# 110029
# 125422
# 126562
# 139170
# 139890
# 150203
# 151975
# 160383
#
# Disc length: 2162 seconds
#
#
# Revision: 0
# Processed by: cddbd v1.5.2PL0 Copyright (c) Steve Scherf et al.
# Submitted via: FreeRIP 2.96 
#
DISCID=14087017
DTITLE=Various Artist - The Old Time Radio Hour (Christmas Program
DYEAR=2008
DGENRE=Christmas
TTITLE0=Program Announcer - Program Introduction
TTITLE1=Peggy Lee - Happy Holiday
TTITLE2=Program Announcer - Program Note
TTITLE3=George Burns and Gracie Allen - Burns and Allen Part One
TTITLE4=Program Announcer - Program Note
TTITLE5=Johnny Mercer - Jingle Bells
TTITLE6=Program Announcer - Program Note
TTITLE7=George Burns and Gracie Allen - Burns and Allen Part Two
TTITLE8=Program Announcer - Program Note
TTITLE9=Lena Horn - White Christmas
TTITLE10=Program Announcer - Program Note
TTITLE11=George Burns and Gracie Allen - Burns and Allen - Part Three
TTITLE12=Program Announcer - Program Note
TTITLE13=Billy Haley and His Comets - Rockin' Around The Christmas Tree
TTITLE14=Program Announcer - Program Note
TTITLE15=George Burns and Gracie Allen - Burns and Allen - Part Four
TTITLE16=Program Announcer - Program Note
TTITLE17=Margeret Whiting and Johnny Mercer  - Baby It's Cold Outside
TTITLE18=Program Announcer - Program Note
TTITLE19=George Burns and Gracie Allen - Burns and Allen - Part Five
TTITLE20=Program Announcer - Program Note
TTITLE21=Bing Crosby - We Wish You A Merry Christmas
TTITLE22=Program Announcer - Program Conclusion
EXTD=EMI Music (Special Marketing)
EXTT0=
EXTT1=
EXTT2=
EXTT3=
EXTT4=
EXTT5=
EXTT6=
EXTT7=
EXTT8=
EXTT9=
EXTT10=
EXTT11=
EXTT12=
EXTT13=
EXTT14=
EXTT15=
EXTT16=
EXTT17=
EXTT18=
EXTT19=
EXTT20=
EXTT21=
EXTT22=
PLAYORDER=
